/* XPM */
static char *_79aee55a39741e1ccfab2d6dd90950fEVeCMo18AkZ0PDbm[] = {
/* columns rows colors chars-per-pixel */
"64 64 16 1 ",
"  c #101010",
". c #181810",
"X c #181818",
"o c #201818",
"O c #202020",
"+ c #282820",
"@ c #282828",
"# c #303028",
"$ c gray22",
"% c #304028",
"& c #584038",
"* c #304048",
"= c #505050",
"- c #585850",
"; c #585858",
": c #606060",
/* pixels */
"*@&%==OoOO+OOX.O%O%@&+&&**=;&X=&XOOOX**:=$-:#  -;-#*.X @=+*=*#&%",
"$*&*$;&@.X.++   %@@$#&;=&*$*o;%*+X+OX @o#$&;=.   %=oXXO%;=%&;=*=",
"*#&%$   Xo++ oX  +#%=*&$=#*&-&&%OOXO.o     XX  .  %XXX%+:==*&$;;",
";=#%X X..+oXo.+X  o+&$-@*%=&*&*%%$.XOO@oo oO@.o.X  XXX.O*-=*-@*%",
"=##  o.Xoooo++XoX OoO==&=X%o#+O*$#oXOoOOoX.XXXX.XOOo X   O%-=;&-",
"@O  ooXXXo XooOOX OO#%O $ XX+#@ooXX.ooXX.oOXXXooXO@OoXOX   XO-:*",
"   OX .oOO$#OoOOO ooO@%%%    O%O XXoooO:::$&@ X+X$:=:oOoOoXX XO-",
".OOoXXX$o+==o.OOoXOoOO    oX  XXooo#*::&;*=&$XOX %#%=:oXXXX. XXX",
"O#XX.%*%:&+;O#O+Oo Xoo    XXXX+Ooo=::&&&$*=:# X#XO&&$=:*o XXXX.%",
"X o$&*=&&=+-O$Oo+o    X  XX  XXXOo%&&==*;&@@*XX@XO%&&=#$-XX.oooO",
"o#&=%%&&-:=O&&OOOOo X..oOO.XXX.X. $:&%*X%o:=* XXX=##%**%XXoXoXXo",
"=&%#=#=&&&&O:*%*XXo@ .O*%@X. XX+#+ $&$&-;@#=&%XXXO@*;;=#oXXXXoOo",
"-&=O=%+;-=*#&-;=OOoO#OX:% .ooX Xo&*O$&-&$=-=O#XoX&=*&=#oX.XX.$$=",
"$&:-$-;;*&$;&&=$XoO##X@*&Oo++X+o$#$&&:=--*&&=%OXX%#$O$o oOX#*%%@",
"**O*&&&$*&%+:#-#oOOX.+$&:&X..o+X@#$=-;-;=-%%%%XXoO#%$X +X %$*$*&",
"$*;**-=&*&o@&@#XOX.Oo:O=O*;XX.XXO%%$&=&&*%@+XO  o@##  oOo %&*&&&",
"&=**&X+&-&=&&*+.Xo@o+=O=;*&XX+ X+O%#=#&$%+O.o#XX X@@ oXO O*O#=;-",
"&-%&-:#o&$$%%* ooX.O#;#*-@;o+   O#%*%*%#OO. XO  o   XXo  +%$;-$&",
"&==$*;-#&&*=#X XoXo#*=:O&:&#&XX X@O$%#X     oo&&.o+oooo.O$@%&&;=",
"+%&;-*=$=;%%@ .oX.;;*&$;=&;=*XX ++@o@@O   XoO&&=*O@X+++X@+##%%%=",
"=*=o;*$X&&*X@ .oX&#@o=;&-*&$;;XXXoOOOO . oo#;==%Oo#o++o ++OOO#%$",
"#%$&-==%==&$X  X +=&-@&-%$-@*%$ XoOoX o+XX*=-$%X.oXXoooXX oOoo@%",
"O#O+-@&&%$$#X.oXo% ;%$=&&==&&%@X+o@X +XOX%-%   .X o  .+ +X XoO@#",
"XO@o%$=XOO%@XX  @=*&-X$-&%O==&#@  X+  .Xo=@ oOooo&o.X  ++XX X .#",
"O+@#%@oO%$#oX  @o$=$@X#-&$&#%#+X   +X.o   X@$%::*;;@oo  o++o  XX",
"X  X#O#O@%OXXoX$$@ooO*#&+=#@@X ooX++oo&-%&=:::&&::&::$%XXooXX  X",
"XoX  oOOo@% XX *.@O--@##&@@ X+o o+.OX.#=;%=&&*%#$*&*$:;%.X XoO  ",
"OXoX   OOoOXX  Oo$ +*+OO++ XXXoXX Xo+ ;-#;&$&**=*#&%&&$=* XXO o.",
"OOX.XX  OXooX  X#o& +@o  o+ooXXX.Xo+O -%=*%&.O%&;=*=%#;;:&Xo OXX",
"+oooXXXX    X o%Oo%%oX  XXXXX#;;#oXoO==&& %&o-=*&$;;:=&&:==XOooX",
"=*$ooXX XX    XoOoOXX ++++X;:+&&:=XOX%%o%#.%**&$-@*%$::&=$$#XXoX",
"*-%=@$OX ooX .X XX + .ooX+*+$::&&& Oo%%=%&o#;*&==&&%@ --;$;. XXo",
"*$*;=O%*  XX.oXX   Xo+&==+&%@ -&#* XO+XO%%*-&*&%O==&:;@ ;o$ XoX.",
"$%$%%&-;OX X..ooXXooo+&%O=+&:;&$&o OoXX*$#;*&-&$&-%&=&:::;   XO#",
"#$@#:#*%:% XXXXXoO;*&-+$&-%&&&&@$X XXoOoo+&*o&$=#=;%=-  +&  . #@",
"*&=#-;-@X%. ooo.X &*o&$=#=;$**:;=*XXX XX%#&-#&&:;-#;&*@.O+ ooXo%",
"=%:@$-= $*XXX.X .#&-#&&:&;&O*&;-&&* o X@*=o&$=;;-%=*=:=% X o.O.O",
"&*@%X=::XOo+XOXo%=o&$=;-%==&*&==:%*#X+++O;#&X&&==&& O$:;* .OO.#*",
"*#&=*%&+-@o.XOoO;;#&X&&&:==&-&%%$%+OXo+X *$=%==%%o%= O=;+XX. X#&",
"$O$-O===@oo XoX#**%:#==*=-=o&$=&&*++XXX+O@X&&%$=&;%=;=@*.XoOOX$%",
"#&O=O**oooXOooX%;=$%&$$:&--#&&=**=;-X.o.o=%=XO*=*%&;:;;*XX+OXOO&",
"#O##*=$=OX+O+ +;&&**O@*-$$&$====X&&&:+.oXo&%O@&=--;@&#@oXOoo.$&%",
"*@Xo;#$@o  Xo +#:&-@##=@O=&X&*-##==*=-X.  XOo$$-%O#=+=&- OOo@%%$",
"&o*#O#*OXX+++ :%==o$$=*@%#=%==$%&$$:&-XXXXO@&*$$$&;*% ;%X@ o%$&;",
"$*%%%oo@ .OX  &;== $-=*&%:=&%$OoO@*-$$ooXXo$$#%#OO$#=*&Xoo+X$ OO",
"%%@X##@X .+ X&*=;=$%#&*&=$$%O*OO##=@OXXXXXo*$#%&=@Oo$=$@oooX#=O:",
"*%@oOOo O X X=:=-$;@$&*&%####@O.X .XO&oooX #%@O%&$=$@=oOo.X@#$=&",
"O##O+. XooX #O=%+@*&=$#@o#@o.oXXXXoX*&=XOo #%o+%O#oX@XXoo.X##%=-",
" o.Oo  X .oo%&@O=@&*#O#$@OXX  XXX&o *&%O=Oo O+oOoXOo$X+oX @%*#%@",
"#oo  oo  OO***@%#&#%%*o#.X  XXX%&.O%&&$&-%o XooX+o #oXooX.o#@&-%",
"XX XoX.XXo@X$#&%:&o%%*   XXX .o%&o-=*$=#=;%X.XOXO##OX .. o%O&@%:",
"  X  o Xoo=&%-&=%%$#   XX.X. Xo.%**&$-:;-#;.X #%@@#   X  %#X#&-*",
"  XoXXo oO$**%&$%%X  XoOo@&XXX .#;*&==;-%=*XX  ooO.  X. O#@@$#o#",
"oOoXXXX%:$&OOO%o%o  X Xo&$== XXo-&*&%O==&&%XXX  #O ooXoXoOOo.X@o",
"ooXX oOo$*=;&%$@X  ooXO=&X&*o X X&-&$;=-:*:&XX     Xoooo      O#",
"XX XO$@=%*oO% XX  XXX %#=%==$  . o&$=%$$-$=&ooX  o@ .O%@XX .X  o",
"XXXo%@++&=%O#oXXXXXX.&%:=&%$OO . #&&:-O&-@%$o X  XO%%:;;oXXXXo .",
"  OO.-%+%O%@O   X  X*&=$$%O*OO XXX=;;*$%=;#%o XXo%:::*%$OXoX.oX ",
"  O#@.@X$&Oo      XX*&%###*%+=.  X=#$=*&#:&% XX #:&=*&%#+oooXX .",
"O% O#@OO%%OX  XXXX##%=#oOO$*X.o X ;==*#= %&*XXo.@*#O==&=@XXX  ..",
"%*&O$#oO#ooX    O;OO-=@%oO&@O@O XX##:; ;OXX#XXoo#%$&-%&@OoX XX#;",
"&O#%@&XoXOoo.  .@#*%OXO%#%=#@#o XXo ;#*@O@@#XX .@%*#=;@o%  O&@#*",
"@o%O*X%XOoXO#oX.*;$=O%*###X#@=XXXoX%=@.o=o#@ XXoo$;--#@oOo$ $*$%",
"@@#@%O%Oo$O@#OoX#@#%%=**X+;#*X#o  Xo% &  o@#XoXXX***%*OO.$;* ##+"
};
