/* XPM */
static char *_a681cb2c35f4eb1a24e3bb56b1a9f44RDpHDBolaNWZN021[] = {
/* columns rows colors chars-per-pixel */
"64 64 12 1 ",
"  c #101010",
". c #202018",
"X c #282820",
"o c #283028",
"O c #403020",
"+ c #303840",
"@ c #484848",
"# c #504840",
"$ c #605848",
"% c #705048",
"& c #786058",
"* c gray47",
/* pixels */
"@@oo   ooX .X.$%$$$&&&**&$@oXX+&&+XXo@$&**&&&$$$%$.X. Xoo   oo@@",
"+o@@@O .o   oX XX+@$&$&$@+oooo%**%oooo+@$&$&$@+XX Xo   o. O@@@o+",
"@#o+@#X oX  oooo+@@$&@@@++$$@+@**@+@$$++@@@&$@@+oooo  Xo X#@+o#@",
"@@@+@@ X@+X +@@+@%&&@@@@@@&&+X@&&@X+&&@@@@@@&&%@+@@+ X+@X @@+@@@",
"+o#@#@ X++X X@$@@$**&$@@@+++X X@@X X+++@@@$&**$@@$@X X++X @#@#o+",
"OOoOO XoXXX   +++@&**@@@+Xo@@@++++@@@oX+@@@**&@+++   XXXoX OOoOO",
"#O  oX++       XX+@@@@+X +$***%++%***$+ X+@@@@+XX       ++Xo  O#",
"o@@OO X++X        oooX  +@&***$++$***&@+  Xooo        X++X OO@@o",
"oX.  X  X+X            X@@$&*&@XX@&*&$@@X            X+X  X  .Xo",
"@X  .    o+X            X++@@@o  o@@@++X            X+o    .  X@",
"#O      XX++X                  ++                  X++XX      O#",
"@++OoO@++ o@+                 @**@                 +@o ++@OoO++@",
".X@@@o@$%@o++  XoooXooX      o****o      XooXoooX  ++o@%$@o@@@X.",
"@#@@$@O@%@$+X  Xoo+++XXoXX  X&****&X  XXoXX+++ooX  X+$@%@O@$@@#@",
"@@O+$$@#@$++o  XooooX++XoX  +*&&&&*+  XoX++XooooX  o++$@#@$$+O@@",
"@o@@@X .@@@+o   X o$*&X X   o&@@@@&o   X X&*$o X   o+@@@. X@@@o@",
"#@X  ...X$@oX    X%**@    +&@@@@@@@@&+    @**%X    Xo@$X...  X@#",
"o  ooOo@o o+@X ++%***+@o @**@@@++@@@**@ o@+***%++ X@+o o@oOoo  o",
"$ .O .o$* X+@X@$$&&&@+@@@*&@@@+  +@@@&*@@@+@&&&$$@X@+X *$o. O. $",
" ..    o&XoXo+@@@@$@@@@@*&@+   @@   +@&*@@@@@$@@@@+oXoX&o    .. ",
".  .oo  X+@Xo++o++@+@@@@@$+   +**+   +$@@@@@+@++o++oX@+X  oo.  .",
"@ X@@O .o@@Xo@+++++o+@@@@@   X****X   @@@@@+o+++++@oX@@o. O@@X @",
"@ooO@@XX+@X XXoo++oX@%&&@+   @&++&@   +@&&%@Xo++ooXX X@+XX@@Ooo@",
"#@@#+@ X+o  .XXXX XX+@%@+  X @@XX@@ X  +@%@+XX XXXX.  o+X @+#@@#",
"oOoooo XoX  X .     o+++o   X$$XX$$X   o+++o     . X  XoX ooooOo",
"@@oOO  oX   Xo.Xo#o+  Xo  X%**%  %**%X  oX  +o#oX.oX   Xo  OOo@@",
"++O    +XX..X.  +$o+ooX  o***&X  X&***o  Xoo+o$+  .X..XX+    O++",
"X  ..oXXo.X X@@       .  &**&+ oo +&**&  .       @@X X.oXXo..  X",
"#@@o  oOo oXX@&&oo@oX+X @*&&$XX@@XX$&&*@ X+Xo@oo&&@XXo oOo  o@@#",
"oOOoX.$OOXOo$XOo.OX+@+ +&@@$@oX++Xo@$@@&+ +@+XO.oOX$oOXOO$.XoOOo",
"      XOo.X.   .o.o@@XX+@@@$@+XooX+@$@@@+XX@@o.o.   .X.oOX      ",
"  XXXX.+X.oX.    X++X++o@@@$$@@oo@@$$@@@o++X++X    .Xo.X+.XXXX  ",
"  XO.XX.oX .X.   XoXo@++@@$@&@@++@@&@$@@++@oXoX   .X. Xo.XX.OX  ",
"  @@OXXX.   X@+. oo X@o$+$$+&++@@++&+$$+$o@X oo .+@X   .XXXO@@  ",
"  $@@@X.XX  .O&X X  XoX@o@@+$+o@@o+$+@@o@XoX  X X&O.  XX.X@@@$  ",
"  $$@@@.XXX  X@& X oX o+X@@@@X    X@@@@X+o Xo X &@X  XXX.@@@$$  ",
". $&&@@$@OOO . $ o +o oXX@@++XXooXX++@@XXo o+ o $ . OOO@$@@&&$ .",
". &%$%$@@+.X     XXoX    o+o@oooooo@o+o    XoXX     X.+@@$%$%& .",
". @&%$&&&$O.  O.  XXoX@Xo@+X@+ XX +@X+@oX@XoXX  .O  .O$&&&$%&@ .",
". $%$$$@$@O+  +.XX XX+@XX%+   OOOO   +%XX@+XX XX.+  +O@$@$$$%$ .",
". %$&&@@$@+@  %+OOX  X+  +X. ++++++ .X+  +X  XOO+%  @+@$@@&&$% .",
". @%@$$$@%%@  @%+XX   X  oX. O++++O .Xo  X   XX+%@  @%%@$$$@%@ .",
"o @&%$&&%@$%# $$%@XXO  OO    $$$$$$    OO  OXX@%$$ #%$@%&&$%&@ o",
". ...    ... .                                    . ...    ... .",
"o..o@o@@@ooo X@ooo@@oo......        ......oo@@ooo@X ooo@@@o@o..o",
"o            o                                    o            o",
"o X.XX.....X o X.OO.X.XX.X X .OOOO. X X.XX.X.OO.X o X.....XX.X o",
"@ X....XX... @ XXXXX.XX.X. o X.OO.X o .X.XX.XXXXX @ ...XX....X @",
"@ @@@@@@@@@@ @ @@@@@@@@@@@ @ @@@@@@ @ @@@@@@@@@@@ @ @@@@@@@@@@ @",
"@ $&&#@$&&&& @ $@@#@$&&%@$ @ @$%%$@ @ $@%&&$@#@@$ @ &&&&$@#&&$ @",
"@ &%$%$@@@%$ @ &%$%$@@@@%& @ $$$$$$ @ &%@@@@$%$%& @ $%@@@$%$%& @",
"@ @@@$&&&$&% @ @&%$&@@$$$$ @ &&%%&& @ $$$$@@&$%&@ @ %&$&&&$@@@ @",
"@ $@@@$@$@%$ @ $%$$$@$@$$$.@ @$$$$@ @.$$$@$@$$$%$ @ $%@$@$@@@$ @",
"@ %$&&%@$@$&...%$&&%@@@@&&.@ %@@@@% @.&&@@@@%&&$%...&$@$@%&&$% @",
"o.@%@$$$@%%@.o.@%@$$@@%&%$.o $$@@$$ o.$%&%@@$$@%@.o.@%%@$$$@%@.o",
"o...     ....o.....     ...o        o...     .....o....     ...o",
"o..@oo@@@@oo ooo.o@@@@oo.. o........o ..oo@@@@o.ooo oo@@@@oo@..o",
".            .             .        .             .            .",
". X.OO.X.X.O . X.OO.OOXOOO . O.OO.O . OOOXOO.OO.X . O.X.X.OO.X .",
". XXXXX.XXXX . XXXXX.O.O.O o XX..XX o O.O.O.XXXXX . XXXX.XXXXX .",
". @@@@@@@@@@ o @@@@@@@@@@@ o @@@@@@ o @@@@@@@@@@@ o @@@@@@@@@@ .",
". $&&@@@@&&&.o $&&#@@%$%*% o #@$$@# o %*%$%@@#&&$ o.&&&@@@@&&$ .",
". &%$%$@@@%$.o &%$@@$$$$$& . %$$$$% . &$$$$$@@$%& o.$%@@@$%$%& .",
". @&%$&&&$&%.. @&%$@&%@$%# . $&&&&$ . #%$@%&@$%&@ ..%&$&&&$%&@ ."
};
