/* XPM */
static char *_9fc942c4c424aa5b6a9a9d09c06474eg78FZaF5QrjPId1X[] = {
/* columns rows colors chars-per-pixel */
"64 64 13 1 ",
"  c #101010",
". c #181818",
"X c #282828",
"o c #202030",
"O c gray19",
"+ c #483830",
"@ c #504038",
"# c #604030",
"$ c #304048",
"% c #504040",
"& c #585040",
"* c #686068",
"= c #787068",
/* pixels */
"oX                    .  O%O        O%O  .                    Xo",
".  .ooO@X      . oo X%%@ .%@ .%+++. X%. X%%@ oo .      XXOoo.  .",
"  o+%$&%$O   o%Oo o X+o. .Oo .++++. oO. .o+X o oO%o   O$&&$%+o  ",
" oOO++$OO%@  X$$o oo .@%. OO. oOOo .OO .%@. oo o$$@  X$OO$++OOo ",
" X%& O. X%%   $&O oo .O$..%$o O+@O o$%..$O. oo O&$   %=X .O &%X ",
".O&$+  OXO%.  X$+. oo .+X.@%o .+$. o%@.X+. oo .+$X  .%OXO  +$&O.",
" o$$+ o&$$%    .+$X o  +O oOo  X+  oOo O+  o X$+.    %$$&o +$$o ",
" +& $. X+%. ooo .OOo o X+. ++ .+%. ++ .+X o oOO. ooo .%+X .$ &+ ",
".O$ $O.    ooooo  o+Oo  .. oO o%%o Oo ..  oO+o  ooooo    .O$ $O.",
"  +&&&Oo.          o%+o     o .@@. o     o+%o          .oO&&&+  ",
". .O%&$$%OXoXOXo    ooX@  o.  .O%.  .o  XXoo    oooooXO%$$&%O. .",
" oo .XO+$$$&&&&%OOXX.  oOo .. .O$. .. oOo  .X@@@&&&&&&&$+OX. oo ",
" ooo   oXoXXXXO+&&&&%O. .X o.  X%  .o X. .O%&&&&+OX@@OoXo   ooo ",
"      .o ..... . ..XO%%o o.oo  @$  oo.o o%%OX.. . ..... o.      ",
".  .oOO.             .XX@X..o  X@  o..X@XX.             .OOo.  .",
"o X%OO.       @O@o     .XO. oo .o oo .OX.     o@O@       .OO%X o",
". O%Oo  ..    +%OO. oo   OO .. o+ .. OO   oo .OO%+    ..  oO%O .",
"  @%$X.o.oo   .++Oo  .o   OO.  o%  .OO   o.  oO++.   oo.o.X$%@  ",
"  o%&+oooX$o   Xoo.  ..o  o+oo.o+.oo+o  o..  .ooX   o$Xooo+&%o  ",
"   o+Ooo oO. .o.        .. ... o% ... ..        .o. .Oo ooO+o   ",
" o   .      X+@.        +%. .  o%  . .%+        .X+X      .   o ",
" oo     oo  +O  .o.   o.+%o o. o@ .o o%+.o   .o.  O+  oo     oo ",
"  oooo o   .O. X+++O. o O%X oo X+ oo X%O o .O+++X .O.   o oooo  ",
"              X+Oo+%O@  X+. o. X+ .o .+X XXO%+oO+X              ",
"OX                ....                    ....                XO",
"&+oo++OoOOooXOoo..XOXXOX.oX@O+O@oO+O@Xo.XOXXOX..ooOXooOOoO++oo+&",
"&OO$=&====+###$===&##%%O%&%+&&$%$%$&&+%&+O%%$ $@&&&&&&######*%OO",
"O.XOO@Xo.@oo@@.X@oXO@Oo ..o .oOo oOo. o.. XO@@@o@X.@Ooo@.ooX@O@.",
"                                                                ",
"OO@o.XO+ooOOO.      .oXO.o+OO+O@oX@+OoX++X.@+OO++OO@@O@@OO@+%ooO",
"&&&###$ $&####X    ###$ $O$=&&&==&###&&&&&&###%&&&&&&&%$=&&####O",
"OO+O%%OO%@X++%#@  o#OXOO&%XXOO+OO$%O++XO+OO%%+OXO@oO%&$OoO@++%%O",
"+O%OO%+Oo +++@%O .+#+Oo@O@+$%+++O++O@..%+OX+$+OO++@X@@O&XOO+%%%$",
"&&%@O%%+.O+O%+Oo o%%%OOOOOOO$&$O@+$%@$$+O%OOOOO%%+O++@ooO%.oo+@+",
"$$%+OOOXo$O%%O+@ .+$+@+%O@@O+$$%$$$$$$$$%+O+O@O%%OO++%&+X%oXoO$X",
"+%$X@X++XO+$%O+X .X%OX%+@O+++%%@$$@+O$$$$+O+@O$@%@@%+O%+O+O+X.%$",
"$$$$@OOo@%OO+X+@.o@+%++$%%$++&$@$OO@o+%O$$@O@O$@+%+%++%o  .O%@o$",
"XO$$$%+XO$++%@++ooO+O@O+OO++OX+O$$%OXO$O%+@%+@O$+OOOO+%$X .+$%OX",
"OO$$$&$%@o+%%OO%Xo$$$OO@+OO%%O+@O$&$+X@%%%O+$%X.$OO+@ o$$+O+$+%O",
"%$+$O%$%%XXO$@...X$O+%@O$OO+%%$@$$%$%Oo@+%o O%$$$$$$$o O$&OoOoO%",
"+$%o$O+%%+@O+%%+. $$++%XO%+++%$OoX+%%%@OO%%++@X+$++$$$%XO%.@%O@+",
"$+%+O+%%%++++O%+o.$OO+%@@O@@%$+++++%%%%++OO$%+X@+O+%%$$$$$$$OO@+",
"OXOO+%+OOOO+%@Xo o$$@OOO$X.XO@@OO+++OOOO%+oooO+OO@O++@OOOOOo++%+",
".o+XO%+%OO+O%%O. .O$$$$$$@XO@.@@O++++OO++%+XoO+++O$$$$$$$$Xo$$%%",
"@O%@OO+%%+O%%%$@  @$%OOX.@%%O@++@OO$%+O+%%%%%%%%$+O@+O+OO$@X$OX+",
"@@@oo.oo@XoX@Xo    ..o.  .X@X@OXo..o@XXoXX@@@@@@@X@o.oX@oXXooX o",
"...  .  ......             .. ..  . ....... .          ...o  ..o",
"OX+ooOOO@@@O+OOO@@XO@XX@OOOX@XOO.@OOO@@OO%OOO.         @+OOo+&OO",
"&$#######&&&==&&##&=######$@@@@@@@@===&&######+X.   o%##==&&&&&O",
"+OO@oO$$$$@%$+@O$%O+O@OOOO+O+$$$XXO$$+OO$%OO@&#%O  .%#+O$$O.+O+O",
"O@Oo.O$$$$$+$+@O+$%$@+%O$OO+$$$@.oO$$OO+%%O@O%$&&. @+O..+%O.X+O%",
"OO@o@@oXOO+%%O%+O++$++++$XoO+O$XXO$$XO++$%O%OO+$&X XOX.XO%%X@%OO",
"OXOX@O@@O+O++O++OOO%+O@%+$$oO@$$$@O@@O+O$+O%+OO+%o .oO+O+&$XO+OX",
"XoO@.O+o$$$$$$$O%%O%+oXOOO$XooXOoo+OX+++%%+O+%++%o XoO&%%&%XOOO%",
"@O@@X@Xo$O+$+OOO+$%$OoOXO%%+XO@@@X@ooXO%$OOOO%$%%o OOoO%+++XO+O$",
"O%OOX@o@$$$++X++@OO+%+OXO++OO++O@@XXX@O+%@X%OX++%X O&OXOOO+@+$+O",
"X@OX.oX@@OOOO@O%+@oXO++XXo.X@@OOo.X@@O+@@O@+%+ooO@.X+O+%%O%OO+%O",
" OOO.XOo.X%+OOXO$O@%X.XOO@@@.oOOX.@X.oO%OOO@O$@O+. XOOO%&&$@O%%%",
". o+. ..XX+$O@@ o+%$%@OOoo++o .@@  .oX@%%@@o O%%$@ @+@OO%$$+OOOO",
"X.O@.o.oOOoo@X@. XOOOOO@.oOooooOX.o.oOOoX@XX .O+Oo oO+@OO$XoOoo+",
"XXXXo@.oO+Xoo.ooXoo.X@O@OO..XXXooXX.@+OX.o.oXoo.oo  @OOX@$@ oOX@",
"X XX@o.@XoOX..  .ooO@X@X@@@++..@@X.o@ooOo .  oXOO.  .+@.OO%% o@X",
"XooX .o. .o. X+. .Xo.@. .o.oXXoo...o. .o..O@  oo     ..oXXXOO.  ",
"               .                           .                 .  "
};
