/* XPM */
static char *_aeb267945c040d1c0d568cbb221472azyJiqH9Wr39lAty0[] = {
/* columns rows colors chars-per-pixel */
"64 64 15 1 ",
"  c #101010",
". c #181818",
"X c #202020",
"o c #202820",
"O c #282828",
"+ c gray22",
"@ c #403038",
"# c #604838",
"$ c #303848",
"% c gray25",
"& c #484848",
"* c #505048",
"= c #505050",
"- c #686050",
"; c #686860",
/* pixels */
"      X$$@$$o%@@&%$$$$OX$$@$$$$$.      . X$$$o$O....   .  XO    ",
"  XXX@-=--#%--#&#=#$%%##%@@%@@@$$.  .Oo$@%@@@%%####&$$%@@%&#$$. ",
" .$O@&*--=-#==##$$#*#%##%#%%%@$%XO  .oo$%%%$$%&#&@%$%%#&%%@@#@$.",
"X.%##=;--#-=&-=-*;@$%O@#%@$##=%X$X  Xo@%%#@=%%=###%#%%OO@@##$@$@",
" XX%;%=-##@#$@;##=#=##$O%#$O$@#%X.  .O%---=##=@$##=##%#@&&%==@%$",
".X%=@=##%##$=$####X .O#$O$@@@$$%oX. XO@$&#-#######%+%$%#%#=&=#@$",
"..O######$#@##@##-=O $=#%O@@$o$%OX  XX%%###$=-#-#==#####-##$&$OO",
" X$%#$@$#-$.@##$.X=-##%$%#$@@#%$XO.  $@==#-@$#$=$#=#@$##=$###@X$",
" O%$O$$$$O@=#$$$#$$#=#=%$@OO##%%O.   XX$==%;##$@=#$##=#$#$o%%%$ ",
" X$#@%####X$#$$@=#O$#=#@O#%$@$%%$ . ..$@#=O#OO=%#$%#&#=&##$OO.oX",
" X.O$#@$OO@@#%##OXXoO$$#$###%%OXOX.  XX#%%#@#$O#$%%$##$%%$%@$O..",
" .XO$o+oX$%O##OO%X.OX$$$$$%O@$$.XXX  X X$$O$$$oO$OO$@OOO%.$X.XXO",
" X.XO$X@@O@$O..$XOXo$ X ..XX..$O$XX  . .X.X  XXXoXoXOOoXXX.X..X ",
" XX .XOX.$.XXX....o .X.  ....XX.Xo   .X..X.XXX XXo$Xo$.XX.X..X  ",
"   .. X.X X.o.X.. ..X...      .  .                    X       ..",
" X      ...  ..    ..     .... . .X.X..X...   .oOOo.X       .O$@",
"@$O..X                XoOO$$OoOOO$$$$$$$OO oO$$+$@%X.O     .@@$#",
"@@@%@@@XXX.         .X@@%@@@@&%$+%%@o@@@$%%O%@%%O$@+$OX.  .OX@#=",
"=%######&@@$.     .X$@%&=######*%#&%*$$%%%%%@##%##-@Ooo.  .o@###",
"#&#%&====#+@O   ...$$$%==-##%=#%$$%#@%@%$#@@#@@=-==#%o..  OO@###",
"##$######==OO    ..o@%####$=@#%OO$$X#+@@%=###=##$-;=&$X. .XO%&-$",
"-##O#%$##%=#$    .Xo$%##@$X#$$$#+$OX%@O$O@%$$#-%-&X&$Oo.. .O$$#=",
"#$#$#$@$#@@X@X.  ..OO%$#@%$@$@@$@@@O$@O###@%##-;--$O%$.O. .$$+@=",
"@$#$O$+$##$$X .  XX$$@$%$%.$#@$$$$O$@@O%$#%##$&%%%$$X@OX. ..@$#@",
"#$$$$O@O.+%%$X   ..oo$OOOXo%OOO$$O$@@OX$$@$%$%@@&$@@X..O. .$$@o@",
"OOoX$$@#OO#OX.X  ..XXO.XO$XO@@X@XO$X@@$O$@$O$O%@O%%OO...   O@@@O",
"@O+$$#$.$%X@O.  ......OX. O$O@XXO.oXOOooooOooooXX.X XX   .. O.X@",
"X$$OX$#.$OOX X.  ..    .OX.OO...oX. .XXX..X.XO.XO.XO..    ..X X+",
".o.ooo%@X$..X.  ....... ....... ... .. .                  .. .OX",
"XX..X.XX...X..    .           .       .   ...... .         .. XO",
". . . .  X.Xo   .  .. ..            XXXXXXoXoXOoX.XoX.X        .",
"       ..   .XO$$$XoooX           .Xooo$OXoOOOOOoO$X$o$@XOX..   ",
"o.Xo .X.O@@O$@&@$$+@$O$Oo$XXOX    .oO+O+#@@+@OX@$$oo+@$oO$$$XXOO",
"oooO$O@@%#$@##@$@@%%#@%@%==%@$$o  .$O@%$O$@o%o$%.XO@@%@@@$X.OO$$",
"O%%%@%@==%=$#-##%%=%#&%%##==#$$O  .o$$@+@@#+-%$%&&##@@&#-=%$$@$$",
"%$O#O%=&&=;-%####=##$%#+-===%#@.. XX$$%#@O@%&@$$#$$@OOO##$$@@@o$",
"$#$##$+$%XO&=-#$#$#$@#%$@=##%#$.. .X$o.+#$$##$X@=##@$#$%=$$$$%&%",
"#$-#=#@#$=#@X####$$%$O$O@$%$$.X.  .Xo+%o+%$#X@#@$###$%$X$%$$@@$@",
"$@O#$###=####%$$O$$+$X@@@$%#%#O.. XO@O###O $#$$$@$$%@$.$#-o$@$%#",
"@$@@@%##=$X.$XO$oo$o@@@$XOO%$$O.. .X@@#OXX@$$@####@#XOX+%O%oO@$#",
"O%@#%#%$.%$$$OO$$.X+X%$@%$$$o$X . ..XOOO$=$%%$##$#.$X$$@%@$%o@%@",
"@O%%#%@=%$@OOO .$O$OO@XXO.Oo@X.X  .XoXO@.@#@@O%$%%O$%$$@%O#$@#$$",
"O$$OO$@$%$o$XXoXO.OO$$$X.X.OO..     XXO@%oO$$$O%%$@XoX$%oO$$$$%%",
"OXoOOOO@OOO.oOXXX$$XOo$o...O..      ..o$.XX#@o$@oOX.Xo XXXXXX$O@",
".XX.XXOOX.o.. .XoXoOOX....X..      X.... X.XX$XXXX .XXX    . XOo",
" .XX X.. . X  .  X XXXX.. XX         ... ....X..XXO.            ",
"  . .       .           .             ..              ..OoOOOO.X",
"$.$X.O ....        .        . ...XXOoX.. Xoo..     .oo$$@%@$$$#$",
"@$%O$$@$$oO    .XXX$$oXXX$XX$$$@%$$@O$ooOoXXOoO.   .o$%#=&==@@%=",
"%$%#%@@%$oXO. .XXX$$o$$$@@@$@oO@@#%$@@%@@+$$$@XX.  Xo@#==##-#-=;",
"=####=##%@O..    X%%@o@@%@#%%%%#%%%#%$@%%O@=@%@oo. X$@=--$##===-",
"%#;=-#@%=@O.. ..X$%==-%$%&&##@@&#-=%#o+#%;==--#$X. Xo&=#####==#;",
"#=-==#=#$$ Xo....$=-=&@$$#$$@OOO##$$%#===-=#--#$XX  O@=#$$=###+-",
"#=-#=###%@XXXX ..$#*=#$X@=##@$#$%=$#--===-;=#==@$X .O$%###$%%#=-",
"#=#=-=$#%$@X.X  .o%&@X@#@$###$%$X$%O##-;====#==%$X .Xo$@#-$@=.$#",
"#$#@##%$$$..O  ..$%%-#$$$@$$%@$.$#-##=##;-##-#%@$. .XO$$#=@$#@$#",
"$==$$=%%O$o.X   .O@&$$@####@#XOX+%O%%$#-##-=-#@@$   .X$%#=+##$==",
"##--#$$%$oO..   .OX$$%$##$#.$X$$@%@$%#OX=###$=@$oX ..@###$O$#$#-",
"%=$$#%%%%OOX    ..O@$@O%$%%O$%$$@%OO$O@$.$$O$$@$O. ..o$#%%#$##$@",
"%%%%#%OX$XO      ...X%%$#%@$%$@.O$$OXO%@OO$%%$oXO  XXX@%=#$=#$=#",
"$%%XX$@OXoX    . ...XO$@%$$o@%$O$$.OOO.XXOXOO.XXX ....O+########",
"OoXOOX$XoX..    .X.  XO. XOX..X.oOXX..X.oX..o.Xo    ..oX$O+$#X#O",
".. ..X.  .  .      . ...XX..X. X.. .X..XX.X.XOX.   .XXX...OO$$$%",
"         .                      .X.X.ooXXXX         . .XX..XX .O"
};
